<svg width="100" height="100" viewBox="0 0 100 100" fill="none" xmlns="http://www.w3.org/2000/svg">
<path d="M41.75 25.5H23V39.5H36.2C39.2941 39.5 41.75 37.0441 41.75 34V25.5Z" fill="currentColor"/>
<path d="M57.25 25.5H76V39.5H62.8C59.7059 39.5 57.25 37.0441 57.25 34V25.5Z" fill="currentColor" fill-opacity="0.6"/>
<path d="M23 45.5H41.75V60H28.55C25.4559 60 23 57.5441 23 54.5V45.5Z" fill="currentColor" fill-opacity="0.8"/>
<path d="M76 45.5H57.25V60H70.45C73.5441 60 76 57.5441 76 54.5V45.5Z" fill="currentColor"/>
<path d="M41.75 65.5H23V79.5H36.2C39.2941 79.5 41.75 77.0441 41.75 74V65.5Z" fill="currentColor"/>
</svg>
